<svg width="616" height="616" viewBox="0 0 616 616" fill="none" xmlns="http://www.w3.org/2000/svg">
<path d="M145.464 512.024C142.221 512.024 138.808 511.768 135.224 511.256C131.64 510.744 128.739 510.061 126.52 509.208C122.936 507.757 121.144 505.325 121.144 501.912C121.144 499.437 121.869 497.475 123.32 496.024C124.856 494.488 127.245 493.72 130.488 493.72C132.707 493.72 135.395 494.019 138.552 494.616C141.709 495.213 144.483 495.512 146.872 495.512C152.163 495.512 155.96 494.829 158.264 493.464C160.568 492.099 161.72 489.325 161.72 485.144C161.72 482.669 160.824 480.579 159.032 478.872C157.325 477.165 153.869 475.544 148.664 474.008C139.192 471.192 132.323 467.693 128.056 463.512C123.875 459.331 121.784 453.912 121.784 447.256C121.784 441.453 123.064 436.547 125.624 432.536C128.269 428.44 131.896 425.325 136.504 423.192C141.112 421.059 146.36 419.992 152.248 419.992C159.16 419.992 164.877 420.931 169.4 422.808C172.984 424.173 174.776 426.605 174.776 430.104C174.776 432.579 174.008 434.584 172.472 436.12C171.021 437.571 168.675 438.296 165.432 438.296C163.299 438.296 160.995 438.083 158.52 437.656C156.045 437.144 153.613 436.888 151.224 436.888C147.555 436.888 144.781 437.528 142.904 438.808C141.027 440.088 140.088 442.221 140.088 445.208C140.088 447.939 141.411 450.413 144.056 452.632C146.701 454.851 151.565 457.027 158.648 459.16C166.755 461.549 172.344 464.792 175.416 468.888C178.488 472.899 180.024 478.019 180.024 484.248C180.024 493.293 176.995 500.205 170.936 504.984C164.963 509.677 156.472 512.024 145.464 512.024ZM224.585 512.024C217.161 512.024 210.846 510.573 205.641 507.672C200.436 504.685 196.468 499.821 193.737 493.08C191.092 486.339 189.769 477.208 189.769 465.688C189.769 454.168 191.092 445.08 193.737 438.424C196.468 431.768 200.436 427.032 205.641 424.216C210.846 421.4 217.161 419.992 224.585 419.992C232.094 419.992 238.409 421.4 243.529 424.216C248.734 427.032 252.66 431.768 255.305 438.424C258.036 445.08 259.401 454.168 259.401 465.688C259.401 477.208 258.036 486.339 255.305 493.08C252.66 499.821 248.734 504.685 243.529 507.672C238.409 510.573 232.094 512.024 224.585 512.024ZM224.585 495.128C227.998 495.128 230.9 494.317 233.289 492.696C235.764 491.075 237.641 488.131 238.921 483.864C240.286 479.597 240.969 473.539 240.969 465.688C240.969 457.752 240.286 451.736 238.921 447.64C237.641 443.459 235.764 440.643 233.289 439.192C230.9 437.656 227.998 436.888 224.585 436.888C221.257 436.888 218.356 437.656 215.881 439.192C213.406 440.643 211.486 443.459 210.121 447.64C208.841 451.736 208.201 457.752 208.201 465.688C208.201 473.539 208.841 479.597 210.121 483.864C211.486 488.131 213.406 491.075 215.881 492.696C218.356 494.317 221.257 495.128 224.585 495.128ZM292.508 503.448C292.508 509.165 289.521 512.024 283.548 512.024C280.647 512.024 278.343 511.299 276.636 509.848C274.929 508.397 274.076 506.264 274.076 503.448V453.144C274.076 445.123 275.143 438.723 277.276 433.944C279.409 429.08 282.908 425.539 287.772 423.32C292.636 421.101 299.121 419.992 307.228 419.992C317.98 419.992 326.087 422.509 331.548 427.544C337.095 432.493 339.868 441.027 339.868 453.144V503.448C339.868 509.165 336.881 512.024 330.908 512.024C328.007 512.024 325.703 511.299 323.996 509.848C322.289 508.397 321.436 506.264 321.436 503.448V453.144C321.436 446.829 320.327 442.349 318.108 439.704C315.975 436.973 312.348 435.608 307.228 435.608C303.217 435.608 300.145 436.205 298.012 437.4C295.879 438.595 294.428 440.472 293.66 443.032C292.892 445.592 292.508 448.963 292.508 453.144V503.448ZM387.945 512.024C377.62 512.024 369.726 509.464 364.265 504.344C358.889 499.139 356.201 491.331 356.201 480.92V429.976C356.201 423.32 359.273 419.992 365.417 419.992C371.561 419.992 374.633 423.32 374.633 429.976V480.92C374.633 486.296 375.785 490.221 378.089 492.696C380.478 495.171 383.764 496.408 387.945 496.408C398.185 496.408 403.305 491.245 403.305 480.92V429.976C403.305 423.32 406.377 419.992 412.521 419.992C418.665 419.992 421.737 423.32 421.737 429.976V480.92C421.737 491.245 418.878 499.011 413.161 504.216C407.444 509.421 399.038 512.024 387.945 512.024ZM459.464 512.024C456.221 512.024 452.808 511.768 449.224 511.256C445.64 510.744 442.739 510.061 440.52 509.208C436.936 507.757 435.144 505.325 435.144 501.912C435.144 499.437 435.869 497.475 437.32 496.024C438.856 494.488 441.245 493.72 444.488 493.72C446.707 493.72 449.395 494.019 452.552 494.616C455.709 495.213 458.483 495.512 460.872 495.512C466.163 495.512 469.96 494.829 472.264 493.464C474.568 492.099 475.72 489.325 475.72 485.144C475.72 482.669 474.824 480.579 473.032 478.872C471.325 477.165 467.869 475.544 462.664 474.008C453.192 471.192 446.323 467.693 442.056 463.512C437.875 459.331 435.784 453.912 435.784 447.256C435.784 441.453 437.064 436.547 439.624 432.536C442.269 428.44 445.896 425.325 450.504 423.192C455.112 421.059 460.36 419.992 466.248 419.992C473.16 419.992 478.877 420.931 483.4 422.808C486.984 424.173 488.776 426.605 488.776 430.104C488.776 432.579 488.008 434.584 486.472 436.12C485.021 437.571 482.675 438.296 479.432 438.296C477.299 438.296 474.995 438.083 472.52 437.656C470.045 437.144 467.613 436.888 465.224 436.888C461.555 436.888 458.781 437.528 456.904 438.808C455.027 440.088 454.088 442.221 454.088 445.208C454.088 447.939 455.411 450.413 458.056 452.632C460.701 454.851 465.565 457.027 472.648 459.16C480.755 461.549 486.344 464.792 489.416 468.888C492.488 472.899 494.024 478.019 494.024 484.248C494.024 493.293 490.995 500.205 484.936 504.984C478.963 509.677 470.472 512.024 459.464 512.024Z" fill="#B9BABB"/>
<circle cx="308" cy="225" r="120" fill="#2D3157"/>
<path d="M335.002 177.333C342.739 181.8 346.984 191.013 347.339 202.626C347.693 214.217 344.147 227.991 336.547 241.155C328.947 254.318 318.792 264.276 308.577 269.765C298.341 275.264 288.24 276.194 280.503 271.728C272.766 267.26 268.52 258.047 268.165 246.434C267.811 234.842 271.357 221.069 278.957 207.905C286.557 194.741 296.712 184.783 306.928 179.295C317.163 173.795 327.265 172.865 335.002 177.333Z" stroke="#B9BABB" stroke-width="2.5"/>
<ellipse cx="307.752" cy="224.53" rx="12.4998" ry="55.7492" transform="rotate(30 307.752 224.53)" fill="#B9BABB"/>
<ellipse cx="337.752" cy="172.569" rx="12.4998" ry="5.74992" transform="rotate(30 337.752 172.569)" fill="#B9BABB"/>
<ellipse cx="277.752" cy="276.491" rx="12.4998" ry="5.74992" transform="rotate(30 277.752 276.491)" fill="#B9BABB"/>
</svg>
