<svg width="100" height="100" viewBox="0 0 100 100" fill="none" xmlns="http://www.w3.org/2000/svg">
<path fill-rule="evenodd" clip-rule="evenodd" d="M76.8759 22.6136C73.391 19.1288 67.7413 19.1288 64.2564 22.6136L59.2598 27.6102L35.7436 51.1263C35.3624 51.5077 35.092 51.9854 34.9612 52.5083L31.9867 64.4062C31.7333 65.4199 32.0303 66.4922 32.7691 67.2308C33.5079 67.9697 34.5802 68.2668 35.5938 68.0134L47.4916 65.0389C48.0148 64.908 48.4922 64.6377 48.8736 64.2563L72.2188 40.9113L77.3863 35.7436C80.8712 32.2588 80.8712 26.6088 77.3863 23.124L76.8759 22.6136ZM68.4629 26.8202C69.6244 25.6586 71.5079 25.6586 72.6694 26.8202L73.1798 27.3305C74.3414 28.4921 74.3414 30.3755 73.1798 31.5371L70.1563 34.5607L65.5298 29.7534L68.4629 26.8202ZM61.3224 33.9607L65.9489 38.768L45.2498 59.4674L38.9604 61.0397L40.5327 54.7505L61.3224 33.9607ZM25.949 38.3573C25.949 36.7145 27.2807 35.3828 28.9234 35.3828H43.7958C45.4386 35.3828 46.7703 34.0511 46.7703 32.4083C46.7703 30.7655 45.4386 29.4338 43.7958 29.4338H28.9234C23.9952 29.4338 20 33.429 20 38.3573V71.0765C20 76.005 23.9952 80 28.9234 80H61.6427C66.5711 80 70.5661 76.005 70.5661 71.0765V56.2041C70.5661 54.5616 69.2345 53.2296 67.5917 53.2296C65.9489 53.2296 64.6172 54.5616 64.6172 56.2041V71.0765C64.6172 72.7193 63.2855 74.051 61.6427 74.051H28.9234C27.2807 74.051 25.949 72.7193 25.949 71.0765V38.3573Z" fill="#B9BABB"/>
</svg>
