<svg width="100" height="100" viewBox="0 0 100 100" fill="none" xmlns="http://www.w3.org/2000/svg">
<path d="M80 56V49.3937C80 41.4966 80 37.5481 77.6915 34.9815C77.4794 34.7454 77.2547 34.5207 77.0186 34.3084C74.4518 32 70.5035 32 62.6063 32H61.4852C58.0241 32 56.2937 32 54.6812 31.5403C53.7953 31.2878 52.9412 30.9341 52.1363 30.4863C50.6711 29.671 49.4474 28.4473 47 26L45.3491 24.3493C44.5289 23.529 44.1188 23.1188 43.6878 22.7615C41.8296 21.2211 39.55 20.2769 37.1467 20.0521C36.5893 20 36.0093 20 34.8493 20C32.2017 20 30.8779 20 29.7752 20.2081C24.9209 21.1239 21.1239 24.9209 20.2081 29.7752C20 30.8779 20 32.2017 20 34.8493V56C20 67.3136 20 72.9707 23.5147 76.4852C27.0295 80 32.6863 80 44 80H56C67.3136 80 72.9707 80 76.4852 76.4852C80 72.9707 80 67.3136 80 56Z" fill="#B9BABB"/>
<path d="M50 42C51.2049 42 52.1818 42.9769 52.1818 44.1818V47.8182H55.8182C57.0231 47.8182 58 48.7951 58 50C58 51.2049 57.0231 52.1818 55.8182 52.1818H52.1818V55.8182C52.1818 57.0231 51.2049 58 50 58C48.7951 58 47.8182 57.0231 47.8182 55.8182V52.1818H44.1818C42.9768 52.1818 42 51.2049 42 50C42 48.7951 42.9768 47.8182 44.1818 47.8182H47.8182V44.1818C47.8182 42.9769 48.7951 42 50 42Z" fill="#2D3157"/>
</svg>
