<svg width="100" height="100" viewBox="0 0 100 100" fill="none" xmlns="http://www.w3.org/2000/svg">
<path d="M50 15C52.1594 15 54.1775 15.5871 56.5205 16.6807C58.8432 17.7648 61.5573 19.3827 65.0918 21.4883L69.7998 24.293H69.8008C73.6932 26.6117 76.6815 28.3902 78.9199 30.0742C81.1776 31.7727 82.7488 33.4299 83.7617 35.543C84.7748 37.6563 85.0793 39.9126 84.9834 42.7246C84.8883 45.5124 84.394 48.938 83.752 53.3994L82.8047 59.9863C81.9797 65.7191 81.3486 70.1123 80.4141 73.4971C79.4719 76.9093 78.1906 79.4191 75.9863 81.3174C73.7825 83.215 71.1003 84.1194 67.5674 84.5625C64.0618 85.0021 59.5938 85 53.7607 85H46.2393C40.4062 85 35.9382 85.0021 32.4326 84.5625C28.8997 84.1195 26.2184 83.2149 24.0146 81.3174C21.8101 79.4191 20.5281 76.9095 19.5859 73.4971C18.6514 70.1123 18.0211 65.719 17.1963 59.9863L16.248 53.3994C15.6061 48.938 15.1117 45.5123 15.0166 42.7246C14.9207 39.9126 15.2252 37.6563 16.2383 35.543C17.2513 33.4299 18.8224 31.7727 21.0801 30.0742C23.3185 28.3902 26.3076 26.6118 30.2002 24.293L34.9082 21.4883C38.4429 19.3827 41.1568 17.7648 43.4795 16.6807C45.8225 15.5871 47.8406 15 50 15Z" stroke="#B9BABB" stroke-width="2"/>
</svg>
