<svg width="100" height="100" viewBox="0 0 100 100" fill="none" xmlns="http://www.w3.org/2000/svg">
<path d="M46.2393 84H53.7607C65.4788 84 71.3381 84 75.3334 80.5599C79.3284 77.1198 80.157 71.3612 81.8145 59.8437L82.762 53.2569C84.0524 44.2907 84.6973 39.8078 82.8596 35.9748C81.0223 32.1418 77.1109 29.812 69.2885 25.1522L64.5799 22.3474C57.4766 18.1158 53.9246 16 50 16C46.0754 16 42.5235 18.1158 35.4199 22.3474L30.7115 25.1522C22.889 29.812 18.9778 32.1418 17.1402 35.9748C15.3027 39.8078 15.9477 44.2907 17.2378 53.2569L18.1856 59.8437C19.8428 71.3612 20.6715 77.1198 24.6667 80.5599C28.6619 84 34.521 84 46.2393 84Z" fill="#B9BABB"/>
</svg>
