<svg width="616" height="616" viewBox="0 0 616 616" fill="none" xmlns="http://www.w3.org/2000/svg">
<circle cx="308" cy="308" r="240" fill="#2D3157"/>
<path d="M362.5 214.103C377.975 223.038 386.466 241.464 387.175 264.692C387.884 287.875 380.791 315.422 365.591 341.75C350.39 368.078 330.08 387.994 309.649 398.972C289.178 409.971 268.975 411.831 253.5 402.897C238.025 393.962 229.535 375.536 228.825 352.308C228.116 329.125 235.209 301.578 250.409 275.25C265.61 248.922 285.92 229.006 306.351 218.028C326.822 207.029 347.025 205.169 362.5 214.103Z" stroke="#B9BABB" stroke-width="5"/>
<path d="M362.5 214.103C363.295 214.563 364.056 215.468 364.598 217.176C365.146 218.902 365.408 221.27 365.298 224.302C365.079 230.363 363.401 238.537 360.345 248.313C354.243 267.827 342.817 293.196 327.486 319.75C312.154 346.304 295.898 368.885 282.049 383.925C275.111 391.461 268.87 397 263.731 400.22C261.16 401.832 258.979 402.789 257.21 403.177C255.46 403.562 254.295 403.356 253.5 402.897C252.705 402.438 251.944 401.532 251.402 399.824C250.854 398.098 250.592 395.73 250.702 392.698C250.921 386.638 252.599 378.463 255.655 368.687C261.757 349.173 273.183 323.804 288.514 297.25C303.846 270.696 320.102 248.115 333.951 233.075C340.889 225.539 347.13 220 352.269 216.78C354.84 215.169 357.021 214.211 358.79 213.823C360.54 213.439 361.705 213.644 362.5 214.103Z" fill="#B9BABB" stroke="#B9BABB" stroke-width="5"/>
<path d="M372.5 196.783C378.239 200.096 382.709 204.11 385.335 207.818C388.097 211.72 388.29 214.434 387.486 215.827C386.681 217.22 384.234 218.41 379.474 217.969C374.95 217.549 369.239 215.685 363.5 212.371C357.761 209.058 353.291 205.044 350.665 201.336C347.903 197.434 347.71 194.72 348.514 193.327C349.319 191.934 351.766 190.744 356.526 191.185C361.05 191.605 366.761 193.469 372.5 196.783Z" fill="#B9BABB" stroke="#B9BABB" stroke-width="5"/>
<path d="M252.5 404.629C258.239 407.942 262.709 411.956 265.335 415.664C268.097 419.566 268.29 422.28 267.486 423.673C266.681 425.066 264.234 426.256 259.474 425.815C254.95 425.395 249.239 423.531 243.5 420.217C237.761 416.904 233.291 412.89 230.665 409.182C227.903 405.28 227.71 402.566 228.514 401.173C229.319 399.78 231.766 398.59 236.526 399.031C241.05 399.451 246.761 401.315 252.5 404.629Z" fill="#B9BABB" stroke="#B9BABB" stroke-width="5"/>
</svg>
