<svg width="100" height="100" viewBox="0 0 100 100" fill="none" xmlns="http://www.w3.org/2000/svg">
<path fill-rule="evenodd" clip-rule="evenodd" d="M22.8 36.4H56.8C60.5555 36.4 63.6 39.4445 63.6 43.2V77.2C63.6 80.9555 60.5555 84 56.8 84H22.8C19.0445 84 16 80.9555 16 77.2V43.2C16 39.4445 19.0445 36.4 22.8 36.4ZM22.8 43.2V77.2H56.8V43.2H22.8ZM67 73.8V36.4C67 34.5222 65.4778 33 63.6 33H26.2C26.2 29.2445 29.2445 26.2 33 26.2H67C70.7555 26.2 73.8 29.2445 73.8 33V67C73.8 70.7555 70.7555 73.8 67 73.8ZM77.2 63.6V26.2C77.2 24.3222 75.6778 22.8 73.8 22.8H36.4C36.4 19.0445 39.4445 16 43.2 16H77.2C80.9555 16 84 19.0445 84 22.8V56.8C84 60.5555 80.9555 63.6 77.2 63.6Z" fill="#B9BABB"/>
</svg>
