<svg width="80" height="80" viewBox="0 0 80 80" fill="none" xmlns="http://www.w3.org/2000/svg">
<path fill-rule="evenodd" clip-rule="evenodd" d="M64.899 14.8989C65.8753 13.9226 67.458 13.9226 68.4343 14.8989L75.101 21.5655C76.0773 22.5418 76.0773 24.1248 75.101 25.1011L68.4343 31.7677C67.458 32.744 65.8753 32.744 64.899 31.7677C63.9226 30.7914 63.9226 29.2085 64.899 28.2322L67.2976 25.8333H61.3236C58.5103 25.8333 56.5776 25.836 55.0566 25.9838C53.59 26.1264 52.7026 26.3901 51.9666 26.8068C51.2306 27.2235 50.548 27.8488 49.671 29.0332C48.762 30.2611 47.765 31.9172 46.3176 34.3296L37.9073 48.347C36.5376 50.63 35.418 52.496 34.3473 53.942C33.2283 55.4533 32.0533 56.663 30.4968 57.544C28.9403 58.4253 27.2987 58.8106 25.4269 58.9926C23.6362 59.1666 21.46 59.1666 18.7978 59.1666H6.66663C5.28593 59.1666 4.16663 58.0473 4.16663 56.6666C4.16663 55.286 5.28593 54.1666 6.66663 54.1666H18.6762C21.4895 54.1666 23.4225 54.164 24.9432 54.0159C26.4099 53.8736 27.2973 53.61 28.0333 53.193C28.7693 52.7763 29.452 52.1513 30.3289 50.9666C31.238 49.739 32.2348 48.0826 33.6823 45.6703L42.0926 31.6528C43.4623 29.37 44.582 27.5039 45.6526 26.058C46.7716 24.5465 47.9466 23.3371 49.5033 22.4558C51.0596 21.5745 52.7013 21.1892 54.573 21.0073C56.3636 20.8332 58.54 20.8333 61.202 20.8333H67.2976L64.899 18.4344C63.9226 17.4581 63.9226 15.8752 64.899 14.8989ZM25.771 25.9715C25.1173 25.8442 24.3777 25.8333 22.2254 25.8333H6.66663C5.28593 25.8333 4.16663 24.714 4.16663 23.3333C4.16663 21.9526 5.28593 20.8333 6.66663 20.8333H22.2254C22.3074 20.8333 22.3883 20.8333 22.4681 20.8333C24.2857 20.8328 25.5393 20.8325 26.7263 21.0636C29.3911 21.5823 31.8147 22.9545 33.6306 24.9727C34.4393 25.8717 35.084 26.9467 36.019 28.5056C36.06 28.574 36.1016 28.6434 36.1436 28.7137C36.854 29.8977 36.4703 31.4333 35.2863 32.1437C34.1023 32.854 32.5666 32.4701 31.8562 31.2862C30.7489 29.4406 30.359 28.812 29.9136 28.3169C28.824 27.106 27.3699 26.2827 25.771 25.9715ZM44.7136 47.8563C45.8976 47.146 47.4333 47.5296 48.1436 48.7136C49.251 50.5593 49.641 51.188 50.0863 51.683C51.176 52.894 52.63 53.7173 54.229 54.0286C54.8826 54.1556 55.6223 54.1666 57.7746 54.1666H67.2976L64.899 51.7676C63.9226 50.7913 63.9226 49.2086 64.899 48.2323C65.8753 47.256 67.458 47.256 68.4343 48.2323L75.101 54.899C76.0773 55.8753 76.0773 57.458 75.101 58.4343L68.4343 65.101C67.458 66.0773 65.8753 66.0773 64.899 65.101C63.9226 64.1246 63.9226 62.542 64.899 61.5656L67.2976 59.1666H57.7746C57.6926 59.1666 57.6116 59.1666 57.5316 59.1666C55.7143 59.167 54.4606 59.1673 53.2736 58.9363C50.6086 58.4176 48.1853 57.0456 46.3693 55.0273C45.5606 54.1283 44.916 53.0533 43.981 51.4943C43.94 51.426 43.8983 51.3566 43.8563 51.2863C43.146 50.1023 43.5296 48.5666 44.7136 47.8563Z" fill="#B9BABB"/>
</svg>
