<svg width="100" height="100" viewBox="0 0 100 100" fill="none" xmlns="http://www.w3.org/2000/svg">
<path d="M77.2119 15C81.5399 15.0002 85 18.5947 85 22.9746V55.3008C85 63.7598 78.4269 71.2631 69.9941 71.0479H69.9932C60.3963 70.7998 53.0829 61.0697 56.6514 50.7471C58.6434 44.9838 64.2015 41.2478 70.1152 41.1543H70.1172C72.5683 41.1187 73.8144 41.6943 76.2119 42.5918V33.4355C76.2118 32.0374 75.1133 30.9482 73.8174 30.9482H46.6641C45.3681 30.9482 44.2696 32.0374 44.2695 33.4355V69.2383C44.2695 77.7369 37.6358 85.269 29.165 84.9932C21.1141 84.7305 14.689 77.7937 15.0117 69.4443V69.4434C15.3298 61.3347 22.268 55.2746 30.0762 55.0889L30.7148 55.0801C32.1418 55.0779 33.1474 55.2038 34.0605 55.5195C34.5574 55.6913 35.015 55.9179 35.4814 56.1836V22.9746C35.4814 18.5943 38.9452 15.0001 43.2695 15H77.2119Z" stroke="#B9BABB" stroke-width="2"/>
</svg>
