<svg width="100" height="100" viewBox="0 0 100 100" fill="none" xmlns="http://www.w3.org/2000/svg">
<path fill-rule="evenodd" clip-rule="evenodd" d="M84 22.9743V55.3008C84 63.2934 77.7988 70.2467 70.0193 70.048C61.1062 69.8178 54.2465 60.765 57.5966 51.0741C59.443 45.7317 64.6124 42.2412 70.1313 42.1541C72.7652 42.1157 73.719 42.7987 77.2116 44.0192V33.4358C77.2116 31.5109 75.691 29.9486 73.8174 29.9486H46.6639C44.7903 29.9486 43.2697 31.5109 43.2697 33.4358V69.2386C43.2697 77.2696 37.0108 84.2478 29.1974 83.9932C21.7166 83.7492 15.7088 77.294 16.0109 69.4827C16.3062 61.9538 22.7654 56.2629 30.1002 56.0886C33.5657 56.0048 34.197 56.5494 36.4813 57.9687V22.9743C36.4813 19.121 39.5225 16 43.2697 16H77.2116C80.9622 16 84 19.121 84 22.9743Z" fill="#B9BABB"/>
</svg>
