<svg width="72" height="72" viewBox="0 0 72 72" fill="none" xmlns="http://www.w3.org/2000/svg">
<path d="M14.1715 33.8818C14.3231 31.3927 14.3989 30.1482 15.0433 28.9511C15.632 27.8574 16.7584 26.7965 17.8849 26.2749C19.1178 25.7039 20.531 25.7039 23.3573 25.7039C24.4107 25.7039 24.9374 25.7039 25.4476 25.6177C25.952 25.5324 26.4438 25.3848 26.9118 25.178C27.3851 24.9689 27.8248 24.6787 28.7043 24.0983L29.1547 23.8011C34.3859 20.3486 37.0015 18.6224 39.1973 19.3724C39.6182 19.5162 40.0257 19.7238 40.3896 19.9798C42.2878 21.315 42.432 24.4215 42.7204 30.6346C42.8272 32.9353 42.9 34.9042 42.9 35.9994C42.9 37.0946 42.8272 39.0635 42.7204 41.3641C42.432 47.5772 42.2878 50.6838 40.3896 52.0189C40.0257 52.275 39.6182 52.4826 39.1973 52.6263C37.0015 53.3762 34.3859 51.6501 29.1547 48.1976L28.7043 47.9005C27.8248 47.32 27.3851 47.0297 26.9118 46.8207C26.4438 46.614 25.952 46.4663 25.4476 46.3811C24.9374 46.2948 24.4107 46.2948 23.3573 46.2948C20.531 46.2948 19.1178 46.2948 17.8849 45.7238C16.7584 45.2023 15.632 44.1412 15.0433 43.0476C14.3989 41.8505 14.3231 40.606 14.1715 38.117C14.1267 37.3806 14.1 36.6632 14.1 35.9994C14.1 35.3355 14.1267 34.6182 14.1715 33.8818Z" stroke="#B9BABB" stroke-width="2.5"/>
<path d="M51.3 23.9994C51.3 23.9994 54.9 27.5994 54.9 35.9994C54.9 44.3994 51.3 47.9994 51.3 47.9994" stroke="#B9BABB" stroke-width="2.5" stroke-linecap="round"/>
<path d="M47.7 29.9994C47.7 29.9994 48.9 31.7994 48.9 35.9994C48.9 40.1994 47.7 41.9994 47.7 41.9994" stroke="#B9BABB" stroke-width="2.5" stroke-linecap="round"/>
</svg>
